<?xml version="1.0" encoding="utf-8"?>
<!-- Generator: Adobe Illustrator 28.2.0, SVG Export Plug-In . SVG Version: 6.00 Build 0)  -->
<svg version="1.2" baseProfile="tiny" id="Layer_1" xmlns="http://www.w3.org/2000/svg" xmlns:xlink="http://www.w3.org/1999/xlink"
	 x="0px" y="0px" viewBox="0 0 256 256" overflow="visible" xml:space="preserve">
<g>
	<path d="M227.399,147.252c-0.635-10.855-5.714-20.969-14.04-27.962c-1.271-4.629-3.489-8.943-6.513-12.669
		c-0.989-10.192-5.96-19.582-13.832-26.13c1.285-1.104,2.37-2.424,3.202-3.899c8.199-3.411,14.292-10.511,16.419-19.133
		c4.618-4.298,7.452-10.175,7.938-16.464c0.14-2.547-0.342-5.089-1.402-7.409c3.915-3.74,5.339-9.393,3.664-14.542
		c-2.741-7.943-12.348-13.099-25.258-13.646c-3.913-3.323-8.938-5.044-14.067-4.817c-2.558,0.012-5.106,0.327-7.59,0.936
		c-2.344-1.052-4.894-1.568-7.463-1.511c-5,0.054-9.903,1.39-14.239,3.881c-0.57-0.075-1.144-0.113-1.719-0.113
		c-5.964,0.595-11.586,3.061-16.062,7.047c-3.171,2.566-6.006,5.52-8.44,8.793c-2.436-3.273-5.273-6.227-8.445-8.793
		c-4.475-3.984-10.095-6.451-16.057-7.047c-0.574,0-1.149,0.036-1.719,0.113c-4.336-2.491-9.239-3.827-14.239-3.881
		c-2.569-0.057-5.119,0.459-7.463,1.511c-2.487-0.61-5.038-0.925-7.599-0.936c-5.127-0.225-10.15,1.495-14.063,4.817
		C45.503,5.939,35.896,11.1,33.151,19.047c-1.671,5.149-0.243,10.8,3.673,14.538c-1.061,2.321-1.542,4.865-1.402,7.414
		c0.486,6.29,3.32,12.167,7.938,16.464c2.128,8.62,8.221,15.719,16.419,19.129c0.828,1.475,1.913,2.795,3.198,3.899
		c-7.871,6.549-12.84,15.939-13.827,26.13c-3.025,3.727-5.243,8.041-6.513,12.669c-8.326,6.993-13.405,17.107-14.04,27.962
		c-1.452,10.7,1.704,21.514,8.685,29.754c1.176,5.925,3.619,11.53,7.151,16.428c0.789,9.266,4.578,18.022,10.792,24.941
		c6.214,7.141,14.557,12.098,23.801,14.139c5.513,5.134,11.98,9.137,19.034,11.783c16.913,15.603,42.974,15.603,59.887,0
		c7.052-2.646,13.515-6.649,19.029-11.783c9.244-2.042,17.587-6.998,23.801-14.139c6.214-6.919,10.003-15.675,10.792-24.941
		c3.536-4.899,5.977-10.502,7.156-16.428c6.979-8.24,10.133-19.054,8.68-29.754H227.399z"/>
	<path fill="#46AF4B" d="M152.124,17.179c0.54-0.156,1.104,0.156,1.26,0.696c0.036,0.126,0.048,0.258,0.034,0.389
		c-0.326,3.04,1.515,2.655,1.954,2.117c3.219-4.725,8.72-7.365,14.42-6.92c0.559,0.057,0.966,0.556,0.909,1.116
		c-0.02,0.192-0.093,0.375-0.213,0.526c-1.809,2.682,0.136,3.193,0.859,2.714c7.377-4.614,14.415-4.627,17.12-2.687
		c0.449,0.338,0.539,0.976,0.201,1.425c-0.042,0.056-0.09,0.107-0.142,0.153c-2.732,2.325-1.203,3.483-0.235,3.13
		c7.209-2.207,15.019-1.207,21.44,2.746c0.435,0.364,0.493,1.011,0.129,1.446c-0.031,0.037-0.065,0.073-0.101,0.105
		c-4.336,3.315-7.156,8.235-7.825,13.651c-0.204,1.791,2.777,1.416,4.03,1.09c0.545-0.138,1.098,0.192,1.236,0.737
		c0.018,0.07,0.028,0.141,0.03,0.213c0.118,4.315-3.962,9.055-10.032,13.108c-0.814,0.543-0.697,1.845,1.158,1.9
		c0.555,0.002,1.003,0.453,1.001,1.007c-0.001,0.177-0.048,0.351-0.137,0.504c-2.162,4.017-5.111,7.798-15.13,10.394
		c-0.549,0.141-0.881,0.7-0.74,1.249c0.08,0.311,0.3,0.566,0.595,0.691c0.523,0.144,0.83,0.684,0.686,1.207
		c-0.059,0.213-0.187,0.399-0.365,0.53c-9.983,8.576-35.281,5.193-38.492-9.241c-0.062-0.288,0.004-0.588,0.181-0.823
		c10.739-14.342,25.271-25.399,41.957-31.925c0.416-0.141,0.639-0.594,0.498-1.01c-0.126-0.372-0.505-0.596-0.891-0.528
		c-18.266,2.655-34.692,12.559-45.567,27.474c-0.303,0.408-0.859,0.533-1.307,0.294C124.429,46.286,137.749,21.562,152.124,17.179z
		 M56.771,56.341c-0.28-0.479-0.118-1.094,0.36-1.374c0.153-0.089,0.327-0.137,0.504-0.137c1.855-0.045,1.972-1.352,1.158-1.895
		c-6.07-4.053-10.141-8.793-10.032-13.104c0.02-0.562,0.492-1.001,1.054-0.98c0.072,0.003,0.143,0.013,0.213,0.03
		c1.257,0.326,4.234,0.701,4.03-1.09c-0.671-5.415-3.491-10.333-7.825-13.646c-0.423-0.377-0.46-1.026-0.083-1.45
		c0.034-0.038,0.071-0.074,0.11-0.106c6.42-3.952,14.231-4.953,21.44-2.746c0.968,0.357,2.497-0.805-0.235-3.13
		c-0.423-0.37-0.466-1.013-0.096-1.436c0.048-0.055,0.101-0.104,0.159-0.147c2.7-1.936,9.738-1.927,17.12,2.687
		c0.719,0.484,2.664-0.027,0.859-2.709c-0.348-0.441-0.272-1.081,0.17-1.429c0.151-0.119,0.332-0.192,0.523-0.213
		c5.7-0.447,11.204,2.192,14.424,6.916c0.434,0.543,2.275,0.923,1.954-2.121c-0.057-0.559,0.35-1.059,0.91-1.115
		c0.129-0.013,0.259-0.001,0.384,0.034c14.375,4.387,27.691,29.107,11.475,37.479c-0.448,0.239-1.004,0.114-1.307-0.294
		C103.164,39.452,86.741,29.55,68.477,26.895c-0.432-0.081-0.848,0.203-0.93,0.635c-0.074,0.392,0.153,0.777,0.532,0.903
		c16.686,6.524,31.218,17.58,41.957,31.92c0.181,0.235,0.244,0.538,0.181,0.828c-3.211,14.429-28.51,17.812-38.492,9.236
		c-0.437-0.321-0.53-0.936-0.209-1.372c0.131-0.178,0.317-0.306,0.53-0.365c0.523-0.22,0.768-0.822,0.549-1.344
		c-0.124-0.295-0.379-0.516-0.689-0.596c-10.023-2.596-12.968-6.378-15.135-10.394L56.771,56.341z"/>
	<path fill="#512BD4" d="M191.892,100.464c4.161,11.064,0.918,16.383-8.947,10.752c-7.958-4.403-14.992-10.301-20.716-17.369
		c-7.436-8.829-2.605-12.76,9.101-10.639C180.408,85.618,187.944,91.942,191.892,100.464z M147.642,88.017
		c14.112,11.729-2.054,20.029-19.644,20.029c-17.595,0-33.757-8.3-19.649-20.029C119.824,78.797,136.166,78.797,147.642,88.017z
		 M64.103,100.464c3.947-8.522,11.481-14.845,20.558-17.256c11.706-2.126,16.537,1.809,9.105,10.639
		c-5.724,7.068-12.758,12.966-20.716,17.369C63.18,116.847,59.941,111.528,64.103,100.464z M43.694,161.939
		c-3.277-8.859-2.417-18.719,2.343-26.877c5.215-8.865,10.462-8.517,12.543-1.004c2.646,10.358,1.687,21.313-2.714,31.061
		C52.003,172.79,47.177,170.199,43.694,161.939z M81.282,219.384c-13.074-3.301-22.581-14.581-23.62-28.026
		C59.62,145.828,125.238,227.137,81.282,219.384z M82.616,162.672c-11.005-6.351-13.918-21.91-6.504-34.747
		c7.414-12.841,22.345-18.093,33.345-11.742c11.005,6.351,13.918,21.91,6.504,34.747C108.548,163.771,93.617,169.023,82.616,162.672
		z M146.357,236.757c-10.967,7.898-25.756,7.898-36.724,0c-10.901-7.527,0.068-16.193,18.364-16.193s29.265,8.666,18.364,16.193
		H146.357z M127.997,165.372c14.107,0,25.542,9.802,25.542,21.892c0,12.091-11.436,21.892-25.542,21.892
		s-25.542-9.802-25.542-21.892C102.455,175.174,113.891,165.372,127.997,165.372z M140.029,150.93
		c-7.414-12.837-4.501-28.397,6.504-34.747c11.005-6.355,25.936-1.099,33.345,11.742c7.418,12.837,4.501,28.397-6.504,34.747
		C162.374,169.027,147.443,163.771,140.029,150.93z M174.713,219.384c-43.965,7.753,21.662-73.556,23.611-28.026
		c-1.037,13.444-10.542,24.724-23.616,28.026H174.713z M212.301,161.939c-3.483,8.259-8.314,10.851-12.172,3.18
		c-4.403-9.746-5.36-20.699-2.714-31.061c2.081-7.508,7.328-7.866,12.538,1.004c4.76,8.158,5.62,18.018,2.343,26.877H212.301z"/>
</g>
</svg>
