<svg xmlns="http://www.w3.org/2000/svg" viewBox="0 0 256 256"><path d="M227.399 147.252a39.53 39.53 0 0 0-14.04-27.962 34.7 34.7 0 0 0-6.513-12.669 38.87 38.87 0 0 0-13.832-26.13 14.6 14.6 0 0 0 3.202-3.899 27.98 27.98 0 0 0 16.419-19.133 25.14 25.14 0 0 0 7.938-16.464 15.75 15.75 0 0 0-1.402-7.409 14.09 14.09 0 0 0 3.664-14.542c-2.741-7.943-12.348-13.099-25.258-13.646A20.34 20.34 0 0 0 183.51.581a32.5 32.5 0 0 0-7.59.936 17.3 17.3 0 0 0-7.463-1.511c-5 .054-9.903 1.39-14.239 3.881a13 13 0 0 0-1.719-.113 28.4 28.4 0 0 0-16.062 7.047 48.7 48.7 0 0 0-8.44 8.793 48.7 48.7 0 0 0-8.445-8.793 28.4 28.4 0 0 0-16.057-7.047q-.863-.001-1.719.113A29.2 29.2 0 0 0 87.537.006a17.3 17.3 0 0 0-7.463 1.511 32.5 32.5 0 0 0-7.599-.936 20.35 20.35 0 0 0-14.063 4.817c-12.909.541-22.516 5.702-25.261 13.649a14.09 14.09 0 0 0 3.673 14.538 15.75 15.75 0 0 0-1.402 7.414 25.13 25.13 0 0 0 7.938 16.464 27.98 27.98 0 0 0 16.419 19.129 14.5 14.5 0 0 0 3.198 3.899 38.87 38.87 0 0 0-13.827 26.13 34.7 34.7 0 0 0-6.513 12.669 39.53 39.53 0 0 0-14.04 27.962 38.1 38.1 0 0 0 8.685 29.754 42.1 42.1 0 0 0 7.151 16.428 42.76 42.76 0 0 0 10.792 24.941 44.18 44.18 0 0 0 23.801 14.139 57.6 57.6 0 0 0 19.034 11.783c16.913 15.603 42.974 15.603 59.887 0a57.6 57.6 0 0 0 19.029-11.783 44.2 44.2 0 0 0 23.801-14.139 42.76 42.76 0 0 0 10.792-24.941 42.1 42.1 0 0 0 7.156-16.428 38.1 38.1 0 0 0 8.68-29.754z"/><path fill="#512bd4" d="M209.953 135.062c-2.624-4.467-5.256-6.588-7.489-6.64l-1.449-1.217-1.155-4.207a20.5 20.5 0 0 0-3.884-7.554l-2.657-3.274-.102-1.052c.879-2.221.461-5.906-1.324-10.654a31.6 31.6 0 0 0-20.562-17.256c-6.336-1.148-10.651-.52-12.104 1.695-3.099-.99-6.589-1.633-10.3-1.817a41.5 41.5 0 0 0-8.788.48 31.38 31.38 0 0 0-24.282-.001 41.4 41.4 0 0 0-8.78-.479c-3.714.184-7.207.828-10.308 1.82-1.451-2.219-5.768-2.849-12.108-1.698a31.6 31.6 0 0 0-20.558 17.256c-1.788 4.752-2.206 8.44-1.324 10.66l-.101 1.045-2.658 3.274a20.55 20.55 0 0 0-3.882 7.552l-1.155 4.208-1.451 1.219c-2.234.052-4.869 2.174-7.496 6.64a31.59 31.59 0 0 0-2.343 26.877c1.584 3.757 3.446 6.335 5.369 7.315l1.245 1.47.706 3.557a28.3 28.3 0 0 0 4.773 10.964l2.145 2.975a38 38 0 0 0-.272 3.139 31.4 31.4 0 0 0 23.62 28.026c1.752.309 3.312.462 4.727.502l2.559 2.383a43.4 43.4 0 0 0 14.409 8.92l2.564.962.091.084c.558 1.502 1.846 3.034 4.002 4.523a31.42 31.42 0 0 0 36.724 0h.004c2.147-1.483 3.434-3.009 3.995-4.505l.11-.102 2.562-.961a43.4 43.4 0 0 0 14.405-8.921l2.559-2.383a32.4 32.4 0 0 0 4.719-.501h-.005a31.4 31.4 0 0 0 23.616-28.026 37 37 0 0 0-.269-3.122l2.162-2.995a28.3 28.3 0 0 0 4.776-10.966l.707-3.553 1.255-1.481c1.915-.989 3.769-3.561 5.346-7.302h-.005a31.59 31.59 0 0 0-2.343-26.877Z"/><path fill="#46af4b" d="M152.124 17.179a1.018 1.018 0 0 1 1.294 1.085c-.326 3.04 1.515 2.655 1.954 2.117a15.95 15.95 0 0 1 14.42-6.92 1.017 1.017 0 0 1 .696 1.642c-1.809 2.682.136 3.193.859 2.714 7.377-4.614 14.415-4.627 17.12-2.687a1.018 1.018 0 0 1 .059 1.578c-2.732 2.325-1.203 3.483-.235 3.13a26.24 26.24 0 0 1 21.44 2.746 1.026 1.026 0 0 1 .028 1.551 20.32 20.32 0 0 0-7.825 13.651c-.204 1.791 2.777 1.416 4.03 1.09a1.017 1.017 0 0 1 1.266.95c.118 4.315-3.962 9.055-10.032 13.108-.814.543-.697 1.845 1.158 1.9a1.004 1.004 0 0 1 .864 1.511c-2.162 4.017-5.111 7.798-15.13 10.394a1.027 1.027 0 0 0-.145 1.94.981.981 0 0 1 .321 1.737c-9.983 8.576-35.281 5.193-38.492-9.241a1.01 1.01 0 0 1 .181-.823 96.2 96.2 0 0 1 41.957-31.925.797.797 0 0 0-.393-1.538 68.6 68.6 0 0 0-45.567 27.474 1.03 1.03 0 0 1-1.307.294c-16.216-8.371-2.896-33.095 11.479-37.478M56.771 56.341a1.005 1.005 0 0 1 .864-1.511c1.855-.045 1.972-1.352 1.158-1.895-6.07-4.053-10.141-8.793-10.032-13.104a1.017 1.017 0 0 1 1.267-.95c1.257.326 4.234.701 4.03-1.09a20.32 20.32 0 0 0-7.825-13.646 1.028 1.028 0 0 1 .027-1.556 26.25 26.25 0 0 1 21.44-2.746c.968.357 2.497-.805-.235-3.13a1.018 1.018 0 0 1 .063-1.583c2.7-1.936 9.738-1.927 17.12 2.687.719.484 2.664-.027.859-2.709a1.017 1.017 0 0 1 .693-1.642 15.95 15.95 0 0 1 14.424 6.916c.434.543 2.275.923 1.954-2.121a1.017 1.017 0 0 1 1.294-1.081c14.375 4.387 27.691 29.107 11.475 37.479a1.03 1.03 0 0 1-1.307-.294 68.6 68.6 0 0 0-45.563-27.47.797.797 0 0 0-.398 1.538 96.17 96.17 0 0 1 41.957 31.92c.181.235.244.538.181.828-3.211 14.429-28.51 17.812-38.492 9.236a.981.981 0 0 1 .321-1.737 1.027 1.027 0 0 0-.14-1.94c-10.023-2.596-12.968-6.378-15.135-10.394z"/><g fill="#fff"><path d="M75.941 177.25q-1.716 0-2.917-1.143-1.201-1.173-1.201-2.785 0-1.642 1.201-2.815t2.917-1.173q1.744 0 2.946 1.173 1.23 1.173 1.23 2.815 0 1.612-1.23 2.785-1.202 1.143-2.946 1.143M121.67 176.605h-7.436L94.644 145.7a14 14 0 0 1-1.23-2.434h-.172q.23 1.349.229 5.776v27.563h-6.578v-42.048h7.922l18.932 30.172q1.202 1.876 1.544 2.58h.114q-.286-1.67-.286-5.659v-27.093h6.549v42.048ZM153.701 176.605h-23.022v-42.048h22.107v5.923h-15.3v11.905h14.099v5.894h-14.099v12.433h16.215v5.894ZM186.419 140.481h-11.783v36.125h-6.807v-36.125h-11.754v-5.923h30.343z"/></g></svg>